<?xml version="1.0" standalone="no"?>
<!DOCTYPE svg PUBLIC "-//W3C//DTD SVG 20010904//EN"
 "http://www.w3.org/TR/2001/REC-SVG-20010904/DTD/svg10.dtd">
<svg version="1.0" xmlns="http://www.w3.org/2000/svg"
 width="512.000000pt" height="512.000000pt" viewBox="0 0 512.000000 512.000000"
 preserveAspectRatio="xMidYMid meet">

<g transform="translate(0.000000,512.000000) scale(0.100000,-0.100000)"
fill="#000000" stroke="none">
<path d="M2055 4669 c-740 -32 -1384 -272 -1739 -650 -141 -150 -234 -313
-283 -497 -23 -85 -26 -117 -26 -257 0 -142 3 -172 26 -260 15 -55 51 -149 81
-210 33 -67 61 -141 71 -190 25 -117 109 -389 166 -545 64 -171 237 -523 323
-659 278 -434 614 -724 1001 -860 187 -67 349 -93 570 -92 480 0 877 169 1225
520 124 125 233 262 324 407 l57 91 77 -20 c112 -28 316 -28 435 1 281 69 505
239 637 485 150 278 158 598 21 882 -100 207 -255 361 -465 461 l-75 36 -6 56
c-47 424 -342 785 -836 1021 -330 158 -768 261 -1168 276 -75 3 -161 7 -191 8
-30 2 -131 0 -225 -4z m440 -425 c349 -18 716 -109 986 -244 363 -182 559
-440 559 -735 -1 -229 -114 -432 -335 -599 -405 -307 -1138 -452 -1865 -370
-844 95 -1401 480 -1400 968 1 548 691 953 1685 989 85 4 192 1 370 -9z m1989
-1534 c98 -107 139 -235 119 -374 -34 -238 -231 -406 -477 -406 -47 0 -51 -24
46 260 41 118 91 284 112 368 21 84 49 173 63 197 l25 45 30 -17 c16 -10 53
-43 82 -73z"/>
<path d="M1691 3765 c-192 -47 -332 -192 -348 -358 -17 -191 109 -344 488
-590 215 -140 370 -211 434 -200 49 8 222 96 350 178 268 171 432 315 490 430
27 54 30 69 30 150 -1 78 -5 98 -30 150 -40 83 -114 154 -206 198 -209 99
-408 70 -603 -88 l-55 -46 -38 34 c-151 134 -334 185 -512 142z"/>
</g>
</svg>
